<svg width="62" height="54" viewBox="0 0 62 54" fill="none" xmlns="http://www.w3.org/2000/svg" xmlns:xlink="http://www.w3.org/1999/xlink">
<path d="M41.516,22.989C42.688,21.817 42.688,19.918 41.516,18.746C40.345,17.575 38.445,17.575 37.274,18.746L41.516,22.989ZM27.471,32.792L25.349,30.671C24.178,31.842 24.178,33.742 25.349,34.913L27.471,32.792ZM45.357,50.679L43.236,52.8C44,53.564 45.116,53.858 46.158,53.57C47.2,53.281 48.005,52.455 48.268,51.406L45.357,50.679ZM57.282,2.981L60.192,3.709C60.464,2.621 60.106,1.472 59.265,0.73C58.424,-0.011 57.239,-0.222 56.194,0.185L57.282,2.981ZM3.622,23.849L2.534,21.053C1.429,21.483 0.68,22.524 0.625,23.71C0.57,24.895 1.219,26.001 2.28,26.532L3.622,23.849ZM15.546,29.811L18.392,28.862C18.141,28.107 17.6,27.483 16.888,27.128L15.546,29.811ZM21.508,47.697L18.662,48.646C19.015,49.705 19.926,50.48 21.028,50.659C22.129,50.837 23.239,50.39 23.908,49.497L21.508,47.697ZM32.852,37.573C33.846,36.248 33.577,34.367 32.252,33.373C30.926,32.379 29.046,32.648 28.052,33.973L32.852,37.573ZM37.274,18.746L25.349,30.671L29.592,34.913L41.516,22.989L37.274,18.746ZM25.349,34.913L43.236,52.8L47.478,48.557L29.592,30.671L25.349,34.913ZM48.268,51.406L60.192,3.709L54.371,2.253L42.447,49.951L48.268,51.406ZM56.194,0.185L2.534,21.053L4.709,26.645L58.369,5.777L56.194,0.185ZM2.28,26.532L14.205,32.494L16.888,27.128L4.963,21.165L2.28,26.532ZM12.7,30.76L18.662,48.646L24.354,46.749L18.392,28.862L12.7,30.76ZM23.908,49.497L32.852,37.573L28.052,33.973L19.108,45.897L23.908,49.497Z" fill="#DEDEDE"/>
</svg>
