<svg width="66" height="46" viewBox="0 0 66 46" fill="none" xmlns="http://www.w3.org/2000/svg" xmlns:xlink="http://www.w3.org/1999/xlink">
<path d="M37.773,41.697L38.546,38.799C38.294,38.732 38.034,38.697 37.773,38.697L37.773,41.697ZM25.849,41.697L25.849,44.697L25.849,41.697ZM2,17.849L-1,17.849L2,17.849ZM2,2.943L2,-0.057C0.343,-0.057 -1,1.286 -1,2.943L2,2.943ZM13.924,2.943L16.924,2.943C16.924,1.286 15.581,-0.057 13.924,-0.057L13.924,2.943ZM13.924,17.849L10.924,17.849L13.924,17.849ZM25.849,29.773L25.849,32.773C26.644,32.773 27.407,32.457 27.97,31.894C28.533,31.332 28.849,30.569 28.849,29.773L25.849,29.773ZM25.849,2.943L25.849,-0.057C24.192,-0.057 22.849,1.286 22.849,2.943L25.849,2.943ZM37.773,2.943L40.773,2.943C40.773,1.286 39.43,-0.057 37.773,-0.057L37.773,2.943ZM37.773,16.358L34.773,16.358C34.773,18.015 36.116,19.358 37.773,19.358L37.773,16.358ZM37.863,16.358L37.863,19.358C37.987,19.358 38.111,19.35 38.234,19.335L37.863,16.358ZM49.698,2.955L49.698,-0.045C48.041,-0.045 46.698,1.298 46.698,2.955L49.698,2.955ZM61.622,2.955L64.564,3.543C64.74,2.662 64.512,1.748 63.942,1.053C63.372,0.358 62.521,-0.045 61.622,-0.045L61.622,2.955ZM60.602,8.056L63.544,8.644L63.544,8.644L60.602,8.056ZM49.698,22.332L48.356,19.649C47.271,20.192 46.619,21.335 46.705,22.545C46.791,23.756 47.598,24.795 48.749,25.178L49.698,22.332ZM60.328,34.588L63.28,34.051L63.28,34.051L60.328,34.588ZM61.622,41.709L61.622,44.709C62.511,44.709 63.355,44.315 63.925,43.632C64.495,42.949 64.733,42.048 64.574,41.173L61.622,41.709ZM49.698,41.709L46.698,41.709C46.698,43.366 48.041,44.709 49.698,44.709L49.698,41.709ZM37.863,28.306L38.234,25.329C37.38,25.223 36.522,25.488 35.877,26.058C35.232,26.627 34.863,27.446 34.863,28.306L37.863,28.306ZM37.863,41.721L37.09,44.62C37.99,44.86 38.951,44.668 39.69,44.1C40.429,43.532 40.863,42.653 40.863,41.721L37.863,41.721ZM37.773,38.697L25.849,38.697L25.849,44.697L37.773,44.697L37.773,38.697ZM25.849,38.697C20.319,38.697 15.016,36.501 11.106,32.591L6.864,36.834C11.899,41.869 18.728,44.697 25.849,44.697L25.849,38.697ZM11.106,32.591C7.197,28.681 5,23.378 5,17.849L-1,17.849C-1,24.969 1.829,31.799 6.864,36.834L11.106,32.591ZM5,17.849L5,2.943L-1,2.943L-1,17.849L5,17.849ZM2,5.943L13.924,5.943L13.924,-0.057L2,-0.057L2,5.943ZM10.924,2.943L10.924,17.849L16.924,17.849L16.924,2.943L10.924,2.943ZM10.924,17.849C10.924,21.807 12.497,25.603 15.296,28.402L19.538,24.159C17.865,22.486 16.924,20.216 16.924,17.849L10.924,17.849ZM15.296,28.402C18.095,31.201 21.891,32.773 25.849,32.773L25.849,26.773C23.482,26.773 21.212,25.833 19.538,24.159L15.296,28.402ZM28.849,29.773L28.849,2.943L22.849,2.943L22.849,29.773L28.849,29.773ZM25.849,5.943L37.773,5.943L37.773,-0.057L25.849,-0.057L25.849,5.943ZM34.773,2.943L34.773,16.358L40.773,16.358L40.773,2.943L34.773,2.943ZM37.773,19.358L37.863,19.358L37.863,13.358L37.773,13.358L37.773,19.358ZM38.234,19.335C42.227,18.837 45.901,16.897 48.564,13.881L44.066,9.91C42.371,11.83 40.033,13.064 37.491,13.381L38.234,19.335ZM48.564,13.881C51.227,10.865 52.697,6.979 52.698,2.955L46.698,2.955C46.697,5.516 45.762,7.99 44.066,9.91L48.564,13.881ZM49.698,5.955L61.622,5.955L61.622,-0.045L49.698,-0.045L49.698,5.955ZM58.68,2.367L57.661,7.468L63.544,8.644L64.564,3.543L58.68,2.367ZM57.661,7.467C57.14,10.072 56.031,12.524 54.418,14.635L59.186,18.277C61.353,15.44 62.844,12.145 63.544,8.644L57.661,7.467ZM54.418,14.635C52.805,16.746 50.732,18.461 48.356,19.649L51.039,25.016C54.232,23.419 57.019,21.114 59.186,18.277L54.418,14.635ZM48.749,25.178C50.947,25.911 52.907,27.22 54.425,28.97L58.957,25.038C56.735,22.476 53.864,20.558 50.646,19.486L48.749,25.178ZM54.425,28.97C55.943,30.72 56.962,32.845 57.377,35.124L63.28,34.051C62.673,30.714 61.18,27.601 58.957,25.038L54.425,28.97ZM57.376,35.124L58.67,42.246L64.574,41.173L63.28,34.051L57.376,35.124ZM61.622,38.709L49.698,38.709L49.698,44.709L61.622,44.709L61.622,38.709ZM52.698,41.709C52.697,37.685 51.227,33.8 48.564,30.784L44.066,34.755C45.762,36.675 46.697,39.148 46.698,41.709L52.698,41.709ZM48.564,30.784C45.901,27.767 42.227,25.828 38.234,25.329L37.491,31.283C40.033,31.6 42.371,32.835 44.066,34.755L48.564,30.784ZM34.863,28.306L34.863,41.721L40.863,41.721L40.863,28.306L34.863,28.306ZM38.636,38.823L38.546,38.799L37,44.596L37.09,44.62L38.636,38.823Z" fill="#DEDEDE"/>
</svg>
